<?xml version="1.0" standalone="no"?>
<!DOCTYPE svg PUBLIC "-//W3C//DTD SVG 20010904//EN"
 "http://www.w3.org/TR/2001/REC-SVG-20010904/DTD/svg10.dtd">
<svg version="1.0" xmlns="http://www.w3.org/2000/svg"
 width="93.000000pt" height="135.000000pt" viewBox="0 0 93.000000 135.000000"
 preserveAspectRatio="xMidYMid meet">

<g transform="translate(0.000000,135.000000) scale(0.100000,-0.100000)"
fill="#000000" stroke="none">
<path d="M150 705 l0 -475 120 0 120 0 2 182 3 183 104 -178 c57 -99 109 -181
116 -183 6 -3 70 -3 143 -2 l132 3 -125 188 c-106 158 -123 188 -108 193 96
33 162 94 183 169 18 65 9 179 -20 235 -66 131 -156 160 -502 160 l-168 0 0
-475z m372 263 c55 -16 78 -49 78 -110 0 -93 -33 -122 -152 -135 l-58 -6 0
132 0 131 46 0 c26 0 64 -5 86 -12z"/>
</g>
</svg>
